<mxfile host="app.diagrams.net" agent="Mozilla/5.0 (Windows NT 10.0; Win64; x64) AppleWebKit/537.36 (KHTML, like Gecko) Chrome/134.0.0.0 Safari/537.36" version="26.1.0">
  <diagram name="Page-1" id="lBo9hRedn3LhE06AcI9N">
    <mxGraphModel dx="3550" dy="3710" grid="1" gridSize="10" guides="1" tooltips="1" connect="1" arrows="1" fold="1" page="1" pageScale="1" pageWidth="850" pageHeight="1100" math="0" shadow="0">
      <root>
        <mxCell id="0" />
        <mxCell id="1" parent="0" />
        <mxCell id="xJXF1Hc_nIpqLQr2RFJc-1" value="" style="shape=image;verticalLabelPosition=bottom;labelBackgroundColor=default;verticalAlign=top;aspect=fixed;imageAspect=0;image=data:image/jpeg,/9j/4AAQSkZJRgABAQAAAQABAAD/2wCEAAkGBxMTEhUTExMWFhUXGBoYGBgYGBgYGhoYGBcXGBsaGhgaHSggGholHRsaITEhJSkrLi4uGB8zODMtNygtLisBCgoKDg0OGxAQGy0lHyUtLS0tLS0tLS0tLS0tLS0tLS0tLS0tLS0tLS0tLS0tLS0tLS0tLS0tLS0tLS0tLS0tLf/AABEIAKgBLAMBIgACEQEDEQH/xAAbAAACAwEBAQAAAAAAAAAAAAABAgADBAUGB//EADwQAAECBAMGBQMDAwMDBQAAAAERIQACMUEDUWEEEnGBkfATobHB0RTh8QUiMkJSYiMzknKCohUkY7LC/8QAFgEBAQEAAAAAAAAAAAAAAAAAAAEC/8QAHREBAQEBAQEAAwEAAAAAAAAAAAERITFBAmFxUf/aAAwDAQACEQMRAD8A+coalrKmT0N4fDnkDTyktWVBnmHGkYMDaUrKZtFTyjVLtcx/hJu8ZBMU/wCorFHb2XZ5WmwklP8A8kqkmtRMQL5xk/UtrxnknmEyoCiUFqLHH2na8X+qYnJC3QRVh46VlVf8iEF0R4eeq6OCZF3ZhMAliLCpUP1HtHW2XZsOcCbC3QaE4spmU6FUEcXD2yY/wkEuW9JvHkSsVbTtmN/VOV0PtD6jqfqG148qyzzh2O6iboCJQNxjDoLHl620yjnDHNfOGG0TZRbf8VtayjMUbLU1h1c3UFynoF7WOacaZgnUkw0u0zZD55REbgVBuyuAjaUH30hUpRbAA8mjCdomC534RJdqmp31MNV0JgCTU01Rs1blBk0bJh5a96RzRjHKCdpmy8qfMGcdCadlQFMyNVGcWCRNS71GqebtHL+qmGdNfwkSTaZk7HlBXRw3DF+IHtAf51Ze7Rh+qmYkaLCnHPCGjfJO4UlCqGmdOYyh0ZZrFKtmBRaesc8bRNlyIhfHmXtO/iFpXQllILFa0dcnPbQQqu6nh58YwDaZg0Tx5qEN3SA6E+IrIFtQIvdUgCXIlWABc8lrktWjn+PMTre/rBO1TXFOf5gOgUbzbu3pEnZVBJs6Mkc4bVNkUVmhRjTZLblAdESNcaVpanzElCgWKqVZeC/H2wfVTCIMebvWBvXQkmsAUUaKBnygqADZc2d7e1I5g2ibu2fesH6iY9VKXWHo3ySlDzLnUOKn8Q8vEcH8mY84531JsMvSFn2gmtIcK6ImLOALxJxohVqlxxvHO8ebKunlDjGmyvrF0bhN+4GrJa1n9IgapXibpovSMH1E35JGq+ZgfUzP0aIjoThdAS/q2kVYoKuau6//AJjH9RNcc/mINpm15tFit2FNJKqy72ikdjkY2SYsky7u9h3SWWWZGzD1jGcE2PDXmYvl27EooR2IHF00jOA4+wftBM8q/wCZ3T5husZ5BIGMomR6kXYsx6GN2zbEcSdThEA/1AzJTViYT9R/TJZF/eFVwr9A68s4vq/DYe0YczSCeTPdllm+DFePsNziDTf3pSQuqiiPFeBtc8oqEsw9kjTs+ynFmXwZnrNLvU/udoI5u6Awq7inEHLlEEsqW7SOlt/6UJASMSVRYl04Bz6Rz5cJFUoeyESH7CzYY04oraPBEktKN3yreJ4RWq6rfmnWIJVdg6c8gz9YEJKhZBfrx7pEYEE+SpyiyTBJprwrA8EpbJVHNIoB3SQBlVO/SAktwDDCQ0FSUscmJ5xBhHzV+3tEClFR0vdYk8kugD9YbwyWLl7U6RJ5ahHutWbt4fQpQsex36wBJLp53iSyJmKD19oulwDamp0i+HFJlFkXm/aQ26O7wZsN0Eq1HlnAnw6sqMzoVd+7xMKAEoeuR7794d3PkV9b/mLvBJcBuZ4O3GKvBKBbJx61zpCIUyDhzqtoc4YrZUPraGOFw+aZ5aQRglSrXpllxMFVCUJupW8GVKgN1h8TBKWzstO3g+Cb8Hy7sIp6qIBJOuVuERAyeWXfrDDD0Ww/FYbdL5hddEe8SwVyygt7KulawZwD3llEEreukPNhTcbvlZUhFVgPT3D6wSAAQil7GGmwNF0HwYkkht7mCQJcMXVn0u6dHgboR9aWgDCJorXLceUMMFU+OXWkWmAZZUHofn5hfDGXxDHD1UchUaQZcCgYltOhKAvE0hBLKDnx884ITJOBhpcEl0cV690hhgkoQnfKKm4bx/4kkXXsVWJLtCPLNNKQ4PoQ9c4ol2cvdlhp9myI9u9YzxXQ2f8AUpi008swf+YCLrQxplkwd1TKpscIEgNYbzvHFOzUTNvs0W4I3UaU8gofj7RfCRdtW0SCbekE8or+5pl4hItl/U5ixmlIuJyEK616xq/9L8SUnxJgA+6iLwEwlXt45G07FNLMjHn8FLQ9mq7UsmBukkOW/wBLeIqxAJIPQRy9pxJN4oJkT+tFJF0FoowZBLYF61unWO1LsHiyE78wF7DlvCXeMJ/iOOMaW5ahY9gQPEC1ZWSqcfbWJtGxGWYyrTWWbruzFOsVSYOfVyOsW6a0YWIC28hJ17aJ4g/uypXoiRQcAnX0vrBOztXnUJktIkFhxpX106leNof6gUU835xn+kKFy2Y8kH4gnZiCVqy6fFICzxQBTIZrUvpBGKDU6o/rnTpFMuyEkfPtB+ldjrYckhtRZNjDPU169iCdoDJzXLJqxR9NNp9jdYcbORf784pOHGJIp4OWAs6C7ekE4wfyt2Lcopl2cHiAfKDJshGR7dIlX1dh44qtSpC/J7SkDxAQSpS2ZPKlYpGzE0p5KhaINnRaotl7/MBaMYJULkPnpDfUSkO7uh49Ip+nXXNOWehhjgk2eotf0rChsPGlqwQ5Dz+WgnGFVSwiqbZzY8KFvbjEwtnvYVMUXDaAqgJy0S9LesTxwBc3ufdEigbMtwi9vnEl2UovLsxBf44zHvnbtoXelKPyGdrcbQg2V/vf3yhZ9lIe3FBAX4m0Sm/CvrnrAl2gcUoyotlWnWKpdkUGYfhUGfawBs4W1We2oVoL4tnxZSfXWqqphjjhj8DXvhFP06vStxbLSGn2Rv5CvO0NRdh44Bry+4dKdISbFBQghkCMjDusVHZi1eCajnBk2bUU0ICrlf4hqeeHOJVhS1yxKIw+0MdpltMRopbzin6cMpTREXlCT7OVqD1MWGavm2mU8u6d3g/VCgRVV18mis7KAjquoy4wfpg2VzXyyiLg/Uyr2/kxjTsu0GX/AG8QA0IJFMqKkY/p2/lw4diNGyYOCo3jNqQ44ZjKsKOpifqAT/WHiOP4SzAj/uVE8rRztr23DP8ACQitZhzYU6xswv0wEf8At5peYnBFblRaMO17NNSd+BBU8AaQP0bZdoKrJOJJiLkeh9UjpY22hFxQMQf4SkH/AJAhuUcvZ9kwgBvmcnTdTkKtG7Z/0+Q/7BHOXEV9UQxIesW0bXhF5JZpX/uFOCN1iqbagrhFalBFu2bBiD/cD1rK7WS3H2jKcEChX8UzqDaNUwx2mUUDur3gjawaLYZ04+0VjAurJ0iybZUo5GXr0ziVKXxwyOgq69TQ84Mu0SlWqHoe84B2bh1C0fhBn2RMvRU94KAxhf36cIk+0CqDvhSDNgiifL9+cA4ALt6et4fQw2gMS54vTp3WJ9TLwqwZF1RzFZwZeFlRVX8wx2V0PrwUKKHjAHxglVIp3wiS4wZR5JygT7OiDjWJJgAswWiFedYsDTbUEq1gj0Ny8SbaQQHLO/OiOiQg2ZgVHQnrlBl2a6rm1C9ekQ3TSbQBZr/i0DxwAEbPJb0hRs7UKfBqnOGOyfm3laAP1ANETryIhvrH0Lot+frFXg5sde9IbwJUVQmh8oUSTaAqr1euWsNh48lw2evCEOziufqErSAcAKzUh00wx5bWdfJzwvDfVBVDLrSwfOEm2YKQTmhDgwfp306Z29uEPRBtQAKUateOXmKwZ9oGqUCXQGubFIWTZxmFhDhDtSlYGLPqAiuo45rXOJLtAq+YcpVT8Qfo1Le6enGAcGXP88LfeC6n1AvVVUK3fKDPjgMFEp9eqIsSXYx/UQOOvY7rV4K6cu0EEi6faRmSc1Loqd+sT6qXL/yRoqk2cUJp5axYNmXl3YRdxNWFLvyKDlf7Q++BLSa7dkdYWWW4JfU/nVYM5NwleYsgvELZ8LKUZwDyfKjxfs+DJMXxBIhsJpluaMEqq2hCqOlHNa8YXAmALgkEhXHuD6Qqu+MScBiccXC4aUuP5E87xx9smBQeH4df7hbUo2gjsbDs4EoOHhzylK4jykLdJgwzjmfqE88xAmmlIyksuZW6ipSE8GbZ8MTBDiiRDkSz3DJzjv4c0yHcn+oDEATSoQh/kf5W04R53BxAv7gUuGcaVTpHc2DAlTekw55SaTTvKlaCYKNU5RFxztswi3+j4ZzG8OpVB0jGdCQqKqtR1PrG39SnJYzSE1Alq3p1PCMqbpYKPKiUEbqT1XNRRzcn9y1GnawZZWZKrki3K60ygAW3gUUU9hrBw0cAnjmOtYnxTTXVqVPbxEcoCeJpyt3k8FFW7oT2usKtt0Z53rnz1ifxEIJc1yANl51ukCUigHKjuxtSCCXrS1EQ2TtYk8thW6hqUIR3i8X9GEtnaui+XXOIQ76Na/lS8LMSwpX0o2aJyiTOquBTJBxTOImBiArYZnPhr9s4n/SElyCuQTq/ekHeCm5qthyF+UHeYAe1tV+7Rd+E0SDcVy8hCTElyLkEqeDc76QyyrTK6Uzbi8NPK6mtVIQURO3iBJi+7m5FhwWJJcqWIY6wwmJcDmyLzgzV7I4tWC6m6E4KCfkcvKEmAIqQT56Jc/MQSEaXAJW/QPzh5jnKWuMw0AswQICAqKKrbprrBM6Fxe5omQ4LFYUirWXgjCxfzgIBkXrfmlWi5iYt3FYI9hQ+busNitUFi9cgrEd6wsxUAvR+A/MKJgqKUzd3vwcREGZSQoAyzqzOE71gpYJaplr6A8YExvqtUZr0SlNESFBC0LVT2yrnBcPOCyUaoR1FMjCSBJqlR68ImEABQOKNlrFmIBughSgqnLmMoBd4KpH2TPtIBJZSCqejxMMm4Yt+e8oKAgA/L/EUHwytFRbNU1yHHpFQxE/pq7BvOHMhqhI65u5gzTdsP/s8TYelK03kzLoegt7Q4FBrUIgZtR9oyiQlCqc6QwwpvKvJalvxCpWiaVGIbIeXtC7xEwZPQdgU4RmEpLAoaxY7EFSMwyvQEQ069F+jTSp+3dkq4mBmBUglCIxfqksyj9884VllIAp/EhirWVuUNsWHizhHARWE2H/5ho536hspB41AnE3WWo84fjfV1JpSKiVCevMI/dY7f6WJCd2WWWSY0InE04I/xI9c481KJsuRRMr1jtbCMTEAClCFP7ZpH0mCCJaB+sbypNNPOFRDKJZRnS/nHPN0F+p5/jrDbfsplNH1nEx/415q+UZRJMhIpSvr3lGqNEs1QaZMPKgtTSIJgppTRl9T7xRLJNrWur60hJBkVunZgNU8ypRK2vcmhbsRJCBc9ojRTiS261qkLNhzDpqsTRp3gFQ3tnmT+YE18kUqdWW4AXzjMcM5kk5068IE8hdX6fmBvWqQFRfqlO3glda2NRwsXjIMIpfy6LZ4Phmj8O6wNad0qxao3l1tW8EkNQe2ofPPOM0mFNqx4U4wBht6IM6ad6QRulmGp6oqa0sF7CSqAaB/NPRtKxnSa3fCKzgzCrWc819oRY2EhT1RQehLCBOUchsvub+cZ5cGavFUy4iEmlNfMHX11gNUoFJQyJ+41PrqkSeagWjCtdQKZxRuTapEMkyopGvw0D1cxComvDvqYczi5YNQE8SKXjMJJlqUgSykuqs4+M4XEaJZkdQ6VIKr3eIZnB5IHtWwEUCUmhzKdon3iSyTlXOtvSLq61zSg0N+PBQSiNwikTMpUnj8RSMMtUM4v9ogEyF07ytEh4vMvrmX492hroigvfPt+cUGScnkmrecLNJMUej5svlFI1VBMqDnmeNYVGQ1oMl0PzFAwj5ksp5/aFANy/HrWMpjRMLk3ckIGe1PvBmwCSs0wBNt4t5xmwxMaHXTpBEhuFPBfURdq+GM9VK3ZynGweCMV0VNXHkLxR4ZRT5wPBILd5w0afFq9WSsa8KXDIWbFANaEGv9x5/MczwdFIaiL7w0uzTH+IJ4KUWHqcd6XbZpVAGJiazT7wJz3R6mOXtW0CYvJLIthKnrlTlGjY9mmkCzyiS+8RKFzuq8ozbaFYTb3/cUF+AvcwixbgSSTJvYwF0QmxoWfrG+bbTKEllnxVrvTq3AV5xwJdmnNJSb0JLjKqR1Ni2aaR5wJQP6pt0eZK+UQU4+2Ekf6YlewQlUWpaKZtoS12y9S8P+oyKiTbz5zMtwoToVjFNhzDrlGiNU20BGpTvS0A4wKBOAV24rGfwiiZcPmBPhEWde2iHxpmxQtk9+FoIxtVbnwig4J59KwowTT8+UPRpOIprzRPK8HFxgVZujRmlwyeOneWUEYZfq8L0XjGVSC+epXpEE8peYilX/AD2IziS/pEOARcjlF0xomx86N+A8TxQoJfqqZV+IzeFWutkt2IAw+v4+YLjZPjOioLBEioYpudaxVNhEMnH8RPAmWn2GqxE1d41Hf2dlhvEFGYdYoOGfyIhwiCFZdOHveHirjjqB5Lw4mCZw1utnrakUT4RR2txiHBOXlWCLvG5CyBXzPHvKGONqHHFAylYokwDReXyBCTYS/mAvE4ZK16FgMoY4jPVtPMF+eZijDkNuxzgHDzPYPpDel1omxBTqjnjwieOShHCpITv1igYJhDhELWpgNRxVySpA79RE8YOWVaga5rlGbwHHtnxhjgl3TlweFFoxqWZPsFh/GYfupRU7WMokP4b0htwu3t1tBf4vnxl5P2eEHxDVC+RX3EZZBw7yh/BOZhUas1TUNXPSAAGREa/aEQ8q5MKIULoAG4xJv2lLep4/aCEl3XYevJlSLsLEmlA3Zyi8UzRa1imdS4zRG70i/BMhJ3zMFCtKD7sO0hatdfYhhzrvAYhpMmGJJs/5EjO9I5v6lgGUgiQyWXfE6jMBP22feMdTZ8VQBhT+IaETzpyAMiJk8cvb8KZXkEpcsJQS70KeWcPx80V4WJNLSYgIqDW6Ujo7EZcQkzbmIWYSCWccJyQK6RzGUb000oSwVFUOqJU0eO5smKko8LEM7JuzzbqDKVZCvCH8I5f6hg7rjDOGNZhMC3MrzPKMYU3zbIV5VjXt+HNeSSV1O6JeKftJHlaMpmcpUMaca/aL+WGFnmBYl624Kma6RLEuRbJ2L516QcGYXKlf6ulBz6xMMIt8wgTq8TfkTwmCVdVapZEp5mDPhBqqmSfk6Q0xLPwTmiGp9Yh4qyrTRy/tFUN+zD456CIieVeOsHCN3AdqfmAE0TUngIhViqLAeWZvFZGnkfK0DeBtR+HFTp6Qwm0yKOQXypFMGWfz1SzN0iTTZlO0HtCJoLdb0YcYY8Cb5Ib62AW8EGYoVKjM340hDMzGYr9+nGJM/CmgTMqqJEUEuXeocBNOHnEJElcAdEqy2z7WAJXUP058ocojP6AZijmBhFmqSBVE4gRYppgaoRkbDVYEz+ZqXFT7Qk0oUlxQIR2+kMyLUv14D0iZFypPY24GubisNJiAA6mi3zooHzAKotAuX5Q/eBKCvKrLx46RUgbw0a6Evz5wS6XOaIKed4m6VD8/diYk+G4VC7RCWGVTnfu/LMwDNyu47aIJSjh2zdaK/adVQg0lzsxW2XlYQqdGfFCFq2QKyad9YAABalwy0upfPlBIYAOlck77eCQiBQlr1tzaic4foViao/chTN8qUEWSOEBK/IcfiCuRzZddBleF8NCxGtatWFNNMmpDjRnXsQu+AjA9fmBhlyEGhVGXgoiSjgt0Cv0iZpeHlChRXRedG84WWahdmRG4t+OkUeIWY3b8VgmchrHi+RyjSrp5c3BzUojVVjyjfs22bhA8KSYojg73UkvHL3j/AG8+GT0+IUYqBE/K+UZxHocQmdzPPhP/AFTybtrSkGukczbNmllpPvm+6JmK5o97xilxiMgmhFrqa0g/UlHHqtlR2aE37R0dk2wSTAHCkm1MpMy8yfJKR0MSY4jmabBGZnl3VW4BlPrHAG0FF+U6rC76sRaz3r5mJneK142zhd4YssxCfxEzCmSF9VUhhGZfvVeCkUaFOJfMc7WW8SbFWzW7sFjcz6L8ZsrXVncPy+ICkEBOzweqRRNjZrkl4M+IgNOnRriInF8uHdC13DvnwgGQizI2a2aM0uKhoDS1U4QTjFgxGVNaWhL1V/7ilU6VvxMSbDK81uA7tGffmatMrLT8wBiGkpTVEVMzeKdaN/8AurklaN+WhySFC8652Bv7Rmkxd3he7fEHxchXtKUhiNE26hNue8LC3aQm8QKFaOdcrxUMQgIl/fMdtCjENUJfQvaJIuRaJ6IxVKm+rLQRZMoeZkJASWy0a6rGaecjNRe/doMxmTL2ENM1pkAVSgJGfG1/SEWgT1qHzq8VeJNTL75QJppjk3wnVLwTxpLlPZczAQhAjXRi4+e6xn8WbIrS9E8nhpdomyrUWU1ZOMPFXDeIVCqMlGOj9iJLKRZ7OOi2r6xmmxj2PzBE5IJ3V6e0WE9a8TCNUKVTjoUHOIpDAGpFLv3+Yyy45FjmjVajdpBmxploi5VsvbVjOJjVNhTElGGR8/5XiqUIGob5cmrFJxJiEA8kpy0gnEW3IdeDcLxrRoOGUVXpXy7z4wswKa06t5xlM54+ui+cPLik2NEIXP1iaNDBHBUPQe/pdYCVah5EfHzGfExrFwOPf5gjGKrVPhILnFuIXYUCWr2kN4gFB35RRLimicmeJ401gP8AjCilU41/MNLr799iLfC5vxTr9oPhfe2aiye0MFWJNQOMjBmqOBe7+l/OL8PY5yUllJ1AVefxG3B/TzKf3ySNRcQBRwBKhNKQpjlyTUBbJimkKZQO0js7QMIKJJkZ0llIPAkBRaMMmzTTzH9s8yUYkc0/HSHM0xl3h2T6Qwlv5Ja8dLA/TzK+JJKmc2Juraiv0vF20yYQl/ZPu5gSyzNS6KF1uIS9P44pmBsdaDlmIiIjae7ZCNE2GTMSZl4sa2skJLgqXD9fNPtFFImIcdv8wZZkm9fflFpwUUKVySvWBLhui+XtS0Kqrc0+3xEM61rfhFvhD7i5y1iGQCpQ2VfK8T4hCWVD0WFrqDxb26RomwmXglyQ4uYrmwkKaVQl/KArmY6VZnyXusS3PiekXHB0q1HF+mukGXDCEjoO2vCmqLsHqPKGnawR+J84uGELEDi/ZrCjDBYXpbvnDDwm8h48FpCg/tNNK5ZCLvBHAPXlEGE4ALdSO8oH1VP+4jIAVWi114RJpqDKlgnZiyaQGpArSqiy9IAwDdTfRFZu6wRVNoNE+8NvUPk+tYtODKoHFlGg4/iAMBWWi286ev4KpEyLWtDWGZbefnDS4SKpp301hppbLr1avdICoz2fVFpbksSQvZOFjFv0jsLqppa6ZxDhab3zlqIoQzd+XaQpnFEPdtPtDSYedETTX1hvCyoC5C5UH3iZhhAUCZe+cLKZc1A4RdLgjXW3Ds5w4wtFN2OeV62zgWsou1s0fnDTTBs15xYJHIoyt71hhhPXv3gjOQ3pdm75xZKQlCenuYs8IZgUHZyrC+CjfB81hVW7rs/AUHp2IaTDoLoK0Lm8SJDe4R1NjOOASMYCQBP5HEQZIAQRoMorxJsEL4kpM/8AhJ4dblSCvCDEhLxLy45+OZSf2AgCgmIJLZoAAqx1diw8YBRjSygDPfTQShQlWW0SJD8msVT4uE/iAGbOXDOHo5Mzi9BaOfizje/aoH+REyoMxSDEi73Gd5qsi3RdFPWzQRLY5rxVu/vEiQVJ51KVNu8rr5wEzDCgIV+XDmkSJGd4Iq1EzV79taiJMEHJu7xIkavE+4OAAShHNj5nWAQjpZLJRUSJEiKhI13bJZkZvLWDvSoQUK0rnoHiRIYfj7iGUEPxoO/POJJ5XJuDp5LEiRPxJ3TTTBCWKnLLvuyGQTIEcN2DQRIkazD7UYAVL5Dz0p00hpgCWcCwySvFfiJEh+1s5qTFAXRLjPK8JMERSBdiNfL5iRIuZWbw13GmaN5GDK7KmbBhSnUc4kSM7zVqTD+kpq5a38enRoBDH9r1UVcZBDQViRIsSf6UjRNX7/EGyBweK9/aJEhOxaYyMnkeTIMoBnlcAIVA5DnwiRISStYiuq6Gl+buYWSarJoG49GaJEi5zWbwwLlOVOyfmKMUBf3Np+NViRIfisf/2Q==;clipPath=inset(20.24% 33.33% 20.24% 33.33%);" vertex="1" parent="1">
          <mxGeometry x="2980" y="410" width="333.06" height="333.06" as="geometry" />
        </mxCell>
        <mxCell id="xJXF1Hc_nIpqLQr2RFJc-2" value="" style="rounded=1;whiteSpace=wrap;html=1;fillColor=#fff2cc;strokeColor=#1C1C1C;" vertex="1" parent="1">
          <mxGeometry x="2210" y="-200" width="670" height="1100" as="geometry" />
        </mxCell>
        <mxCell id="xJXF1Hc_nIpqLQr2RFJc-3" value="" style="shape=image;verticalLabelPosition=bottom;labelBackgroundColor=default;verticalAlign=top;aspect=fixed;imageAspect=0;image=https://medlineplus.gov/images/Xray_share.jpg;fontStyle=0" vertex="1" parent="1">
          <mxGeometry x="1849.9964680531307" y="-65.5518681318681" width="296.0566771277654" height="197.36023404866623" as="geometry" />
        </mxCell>
        <mxCell id="xJXF1Hc_nIpqLQr2RFJc-4" value="" style="shape=image;verticalLabelPosition=bottom;labelBackgroundColor=default;verticalAlign=top;aspect=fixed;imageAspect=0;image=https://img.freepik.com/free-vector/flat-style-distorted-checkered-background_23-2148964237.jpg;" vertex="1" parent="1">
          <mxGeometry x="1846.512861184167" y="461.0990109890109" width="303.03334453112916" height="201.8662251640993" as="geometry" />
        </mxCell>
        <mxCell id="xJXF1Hc_nIpqLQr2RFJc-5" value="" style="group;fillColor=#b1ddf0;strokeColor=#10739e;container=0;" connectable="0" vertex="1" parent="1">
          <mxGeometry x="2390" y="-92.86000000000001" width="310" height="300" as="geometry" />
        </mxCell>
        <mxCell id="xJXF1Hc_nIpqLQr2RFJc-6" value="" style="endArrow=classic;html=1;rounded=0;fontStyle=1;strokeWidth=6;" edge="1" parent="1">
          <mxGeometry width="50" height="50" relative="1" as="geometry">
            <mxPoint x="2150" y="42" as="sourcePoint" />
            <mxPoint x="2390" y="42" as="targetPoint" />
          </mxGeometry>
        </mxCell>
        <mxCell id="xJXF1Hc_nIpqLQr2RFJc-7" value="&lt;span style=&quot;font-size: 44px;&quot;&gt;Medical Image&lt;/span&gt;" style="text;html=1;align=center;verticalAlign=middle;whiteSpace=wrap;rounded=0;fontStyle=1;fontFamily=Verdana;fontSize=38;" vertex="1" parent="1">
          <mxGeometry x="1770" y="87.07" width="439.79" height="174.29" as="geometry" />
        </mxCell>
        <mxCell id="xJXF1Hc_nIpqLQr2RFJc-8" value="" style="group;fillColor=#bac8d3;strokeColor=#23445d;container=0;" connectable="0" vertex="1" parent="1">
          <mxGeometry x="2381.01" y="395.56999999999994" width="310" height="300" as="geometry" />
        </mxCell>
        <mxCell id="xJXF1Hc_nIpqLQr2RFJc-9" value="&lt;span style=&quot;font-size: 44px;&quot;&gt;Arnold&#39;s Cat Map&lt;/span&gt;" style="text;html=1;align=center;verticalAlign=middle;whiteSpace=wrap;rounded=0;fontStyle=1;fontFamily=Verdana;fontSize=38;" vertex="1" parent="1">
          <mxGeometry x="2411.5695954508237" y="-17.518913840693074" width="279.4444901649691" height="149.3237592052386" as="geometry" />
        </mxCell>
        <mxCell id="xJXF1Hc_nIpqLQr2RFJc-10" value="&lt;span style=&quot;font-size: 44px;&quot;&gt;XOR diffusion&lt;/span&gt;" style="text;html=1;align=center;verticalAlign=middle;whiteSpace=wrap;rounded=0;fontStyle=1;fontFamily=Verdana;fontSize=38;" vertex="1" parent="1">
          <mxGeometry x="2396.2895954508235" y="479.99108615930686" width="279.4444901649691" height="149.3237592052386" as="geometry" />
        </mxCell>
        <mxCell id="xJXF1Hc_nIpqLQr2RFJc-11" value="" style="endArrow=classic;html=1;rounded=0;fontStyle=1;strokeWidth=6;" edge="1" parent="1">
          <mxGeometry width="50" height="50" relative="1" as="geometry">
            <mxPoint x="2160" y="554" as="sourcePoint" />
            <mxPoint x="2380" y="554" as="targetPoint" />
          </mxGeometry>
        </mxCell>
        <mxCell id="xJXF1Hc_nIpqLQr2RFJc-12" value="" style="endArrow=classic;html=1;rounded=0;fontStyle=1;strokeWidth=6;" edge="1" parent="1">
          <mxGeometry width="50" height="50" relative="1" as="geometry">
            <mxPoint x="2548" y="207.14" as="sourcePoint" />
            <mxPoint x="2548" y="397.14" as="targetPoint" />
          </mxGeometry>
        </mxCell>
        <mxCell id="xJXF1Hc_nIpqLQr2RFJc-13" value="&lt;font style=&quot;font-size: 30px;&quot;&gt;Scrambled image after k iterations&lt;/font&gt;" style="text;html=1;align=center;verticalAlign=middle;whiteSpace=wrap;rounded=0;fontStyle=1;fontFamily=Verdana;fontSize=38;" vertex="1" parent="1">
          <mxGeometry x="2223.04" y="260" width="300" height="70" as="geometry" />
        </mxCell>
        <mxCell id="xJXF1Hc_nIpqLQr2RFJc-14" value="&lt;span style=&quot;font-size: 44px;&quot;&gt;High entropy key&lt;/span&gt;" style="text;html=1;align=center;verticalAlign=middle;whiteSpace=wrap;rounded=0;fontStyle=1;fontFamily=Verdana;fontSize=38;" vertex="1" parent="1">
          <mxGeometry x="1840" y="660" width="354.08" height="174.29" as="geometry" />
        </mxCell>
        <mxCell id="xJXF1Hc_nIpqLQr2RFJc-15" value="&lt;span style=&quot;font-size: 44px;&quot;&gt;Encryption&lt;/span&gt;" style="text;html=1;align=center;verticalAlign=middle;whiteSpace=wrap;rounded=0;fontStyle=1;fontFamily=Verdana;fontSize=38;" vertex="1" parent="1">
          <mxGeometry x="2346.29" y="-370" width="410" height="174.29" as="geometry" />
        </mxCell>
        <mxCell id="xJXF1Hc_nIpqLQr2RFJc-16" value="" style="endArrow=classic;html=1;rounded=0;fontStyle=1;strokeWidth=6;entryX=-0.004;entryY=0.426;entryDx=0;entryDy=0;entryPerimeter=0;" edge="1" parent="1" target="xJXF1Hc_nIpqLQr2RFJc-1">
          <mxGeometry width="50" height="50" relative="1" as="geometry">
            <mxPoint x="2691.01" y="552.15" as="sourcePoint" />
            <mxPoint x="2950" y="552" as="targetPoint" />
          </mxGeometry>
        </mxCell>
        <mxCell id="xJXF1Hc_nIpqLQr2RFJc-17" value="&lt;span style=&quot;font-size: 30px;&quot;&gt;Encrypted Medical Image&lt;/span&gt;" style="text;html=1;align=center;verticalAlign=middle;whiteSpace=wrap;rounded=0;fontStyle=1;fontFamily=Verdana;fontSize=38;" vertex="1" parent="1">
          <mxGeometry x="3000" y="770" width="300" height="70" as="geometry" />
        </mxCell>
        <mxCell id="xJXF1Hc_nIpqLQr2RFJc-18" value="" style="shape=image;verticalLabelPosition=bottom;labelBackgroundColor=default;verticalAlign=top;aspect=fixed;imageAspect=0;image=data:image/jpeg,/9j/4AAQSkZJRgABAQAAAQABAAD/2wCEAAkGBxMTEhUTExMWFhUXGBoYGBgYGBgYGhoYGBcXGBsaGhgaHSggGholHRsaITEhJSkrLi4uGB8zODMtNygtLisBCgoKDg0OGxAQGy0lHyUtLS0tLS0tLS0tLS0tLS0tLS0tLS0tLS0tLS0tLS0tLS0tLS0tLS0tLS0tLS0tLS0tLf/AABEIAKgBLAMBIgACEQEDEQH/xAAbAAACAwEBAQAAAAAAAAAAAAABAgADBAUGB//EADwQAAECBAMGBQMDAwMDBQAAAAERIQACMUEDUWEEEnGBkfATobHB0RTh8QUiMkJSYiMzknKCohUkY7LC/8QAFgEBAQEAAAAAAAAAAAAAAAAAAAEC/8QAHREBAQEBAQEAAwEAAAAAAAAAAAERITFBAmFxUf/aAAwDAQACEQMRAD8A+coalrKmT0N4fDnkDTyktWVBnmHGkYMDaUrKZtFTyjVLtcx/hJu8ZBMU/wCorFHb2XZ5WmwklP8A8kqkmtRMQL5xk/UtrxnknmEyoCiUFqLHH2na8X+qYnJC3QRVh46VlVf8iEF0R4eeq6OCZF3ZhMAliLCpUP1HtHW2XZsOcCbC3QaE4spmU6FUEcXD2yY/wkEuW9JvHkSsVbTtmN/VOV0PtD6jqfqG148qyzzh2O6iboCJQNxjDoLHl620yjnDHNfOGG0TZRbf8VtayjMUbLU1h1c3UFynoF7WOacaZgnUkw0u0zZD55REbgVBuyuAjaUH30hUpRbAA8mjCdomC534RJdqmp31MNV0JgCTU01Rs1blBk0bJh5a96RzRjHKCdpmy8qfMGcdCadlQFMyNVGcWCRNS71GqebtHL+qmGdNfwkSTaZk7HlBXRw3DF+IHtAf51Ze7Rh+qmYkaLCnHPCGjfJO4UlCqGmdOYyh0ZZrFKtmBRaesc8bRNlyIhfHmXtO/iFpXQllILFa0dcnPbQQqu6nh58YwDaZg0Tx5qEN3SA6E+IrIFtQIvdUgCXIlWABc8lrktWjn+PMTre/rBO1TXFOf5gOgUbzbu3pEnZVBJs6Mkc4bVNkUVmhRjTZLblAdESNcaVpanzElCgWKqVZeC/H2wfVTCIMebvWBvXQkmsAUUaKBnygqADZc2d7e1I5g2ibu2fesH6iY9VKXWHo3ySlDzLnUOKn8Q8vEcH8mY84531JsMvSFn2gmtIcK6ImLOALxJxohVqlxxvHO8ebKunlDjGmyvrF0bhN+4GrJa1n9IgapXibpovSMH1E35JGq+ZgfUzP0aIjoThdAS/q2kVYoKuau6//AJjH9RNcc/mINpm15tFit2FNJKqy72ikdjkY2SYsky7u9h3SWWWZGzD1jGcE2PDXmYvl27EooR2IHF00jOA4+wftBM8q/wCZ3T5husZ5BIGMomR6kXYsx6GN2zbEcSdThEA/1AzJTViYT9R/TJZF/eFVwr9A68s4vq/DYe0YczSCeTPdllm+DFePsNziDTf3pSQuqiiPFeBtc8oqEsw9kjTs+ynFmXwZnrNLvU/udoI5u6Awq7inEHLlEEsqW7SOlt/6UJASMSVRYl04Bz6Rz5cJFUoeyESH7CzYY04oraPBEktKN3yreJ4RWq6rfmnWIJVdg6c8gz9YEJKhZBfrx7pEYEE+SpyiyTBJprwrA8EpbJVHNIoB3SQBlVO/SAktwDDCQ0FSUscmJ5xBhHzV+3tEClFR0vdYk8kugD9YbwyWLl7U6RJ5ahHutWbt4fQpQsex36wBJLp53iSyJmKD19oulwDamp0i+HFJlFkXm/aQ26O7wZsN0Eq1HlnAnw6sqMzoVd+7xMKAEoeuR7794d3PkV9b/mLvBJcBuZ4O3GKvBKBbJx61zpCIUyDhzqtoc4YrZUPraGOFw+aZ5aQRglSrXpllxMFVCUJupW8GVKgN1h8TBKWzstO3g+Cb8Hy7sIp6qIBJOuVuERAyeWXfrDDD0Ww/FYbdL5hddEe8SwVyygt7KulawZwD3llEEreukPNhTcbvlZUhFVgPT3D6wSAAQil7GGmwNF0HwYkkht7mCQJcMXVn0u6dHgboR9aWgDCJorXLceUMMFU+OXWkWmAZZUHofn5hfDGXxDHD1UchUaQZcCgYltOhKAvE0hBLKDnx884ITJOBhpcEl0cV690hhgkoQnfKKm4bx/4kkXXsVWJLtCPLNNKQ4PoQ9c4ol2cvdlhp9myI9u9YzxXQ2f8AUpi008swf+YCLrQxplkwd1TKpscIEgNYbzvHFOzUTNvs0W4I3UaU8gofj7RfCRdtW0SCbekE8or+5pl4hItl/U5ixmlIuJyEK616xq/9L8SUnxJgA+6iLwEwlXt45G07FNLMjHn8FLQ9mq7UsmBukkOW/wBLeIqxAJIPQRy9pxJN4oJkT+tFJF0FoowZBLYF61unWO1LsHiyE78wF7DlvCXeMJ/iOOMaW5ahY9gQPEC1ZWSqcfbWJtGxGWYyrTWWbruzFOsVSYOfVyOsW6a0YWIC28hJ17aJ4g/uypXoiRQcAnX0vrBOztXnUJktIkFhxpX106leNof6gUU835xn+kKFy2Y8kH4gnZiCVqy6fFICzxQBTIZrUvpBGKDU6o/rnTpFMuyEkfPtB+ldjrYckhtRZNjDPU169iCdoDJzXLJqxR9NNp9jdYcbORf784pOHGJIp4OWAs6C7ekE4wfyt2Lcopl2cHiAfKDJshGR7dIlX1dh44qtSpC/J7SkDxAQSpS2ZPKlYpGzE0p5KhaINnRaotl7/MBaMYJULkPnpDfUSkO7uh49Ip+nXXNOWehhjgk2eotf0rChsPGlqwQ5Dz+WgnGFVSwiqbZzY8KFvbjEwtnvYVMUXDaAqgJy0S9LesTxwBc3ufdEigbMtwi9vnEl2UovLsxBf44zHvnbtoXelKPyGdrcbQg2V/vf3yhZ9lIe3FBAX4m0Sm/CvrnrAl2gcUoyotlWnWKpdkUGYfhUGfawBs4W1We2oVoL4tnxZSfXWqqphjjhj8DXvhFP06vStxbLSGn2Rv5CvO0NRdh44Bry+4dKdISbFBQghkCMjDusVHZi1eCajnBk2bUU0ICrlf4hqeeHOJVhS1yxKIw+0MdpltMRopbzin6cMpTREXlCT7OVqD1MWGavm2mU8u6d3g/VCgRVV18mis7KAjquoy4wfpg2VzXyyiLg/Uyr2/kxjTsu0GX/AG8QA0IJFMqKkY/p2/lw4diNGyYOCo3jNqQ44ZjKsKOpifqAT/WHiOP4SzAj/uVE8rRztr23DP8ACQitZhzYU6xswv0wEf8At5peYnBFblRaMO17NNSd+BBU8AaQP0bZdoKrJOJJiLkeh9UjpY22hFxQMQf4SkH/AJAhuUcvZ9kwgBvmcnTdTkKtG7Z/0+Q/7BHOXEV9UQxIesW0bXhF5JZpX/uFOCN1iqbagrhFalBFu2bBiD/cD1rK7WS3H2jKcEChX8UzqDaNUwx2mUUDur3gjawaLYZ04+0VjAurJ0iybZUo5GXr0ziVKXxwyOgq69TQ84Mu0SlWqHoe84B2bh1C0fhBn2RMvRU94KAxhf36cIk+0CqDvhSDNgiifL9+cA4ALt6et4fQw2gMS54vTp3WJ9TLwqwZF1RzFZwZeFlRVX8wx2V0PrwUKKHjAHxglVIp3wiS4wZR5JygT7OiDjWJJgAswWiFedYsDTbUEq1gj0Ny8SbaQQHLO/OiOiQg2ZgVHQnrlBl2a6rm1C9ekQ3TSbQBZr/i0DxwAEbPJb0hRs7UKfBqnOGOyfm3laAP1ANETryIhvrH0Lot+frFXg5sde9IbwJUVQmh8oUSTaAqr1euWsNh48lw2evCEOziufqErSAcAKzUh00wx5bWdfJzwvDfVBVDLrSwfOEm2YKQTmhDgwfp306Z29uEPRBtQAKUateOXmKwZ9oGqUCXQGubFIWTZxmFhDhDtSlYGLPqAiuo45rXOJLtAq+YcpVT8Qfo1Le6enGAcGXP88LfeC6n1AvVVUK3fKDPjgMFEp9eqIsSXYx/UQOOvY7rV4K6cu0EEi6faRmSc1Loqd+sT6qXL/yRoqk2cUJp5axYNmXl3YRdxNWFLvyKDlf7Q++BLSa7dkdYWWW4JfU/nVYM5NwleYsgvELZ8LKUZwDyfKjxfs+DJMXxBIhsJpluaMEqq2hCqOlHNa8YXAmALgkEhXHuD6Qqu+MScBiccXC4aUuP5E87xx9smBQeH4df7hbUo2gjsbDs4EoOHhzylK4jykLdJgwzjmfqE88xAmmlIyksuZW6ipSE8GbZ8MTBDiiRDkSz3DJzjv4c0yHcn+oDEATSoQh/kf5W04R53BxAv7gUuGcaVTpHc2DAlTekw55SaTTvKlaCYKNU5RFxztswi3+j4ZzG8OpVB0jGdCQqKqtR1PrG39SnJYzSE1Alq3p1PCMqbpYKPKiUEbqT1XNRRzcn9y1GnawZZWZKrki3K60ygAW3gUUU9hrBw0cAnjmOtYnxTTXVqVPbxEcoCeJpyt3k8FFW7oT2usKtt0Z53rnz1ifxEIJc1yANl51ukCUigHKjuxtSCCXrS1EQ2TtYk8thW6hqUIR3i8X9GEtnaui+XXOIQ76Na/lS8LMSwpX0o2aJyiTOquBTJBxTOImBiArYZnPhr9s4n/SElyCuQTq/ekHeCm5qthyF+UHeYAe1tV+7Rd+E0SDcVy8hCTElyLkEqeDc76QyyrTK6Uzbi8NPK6mtVIQURO3iBJi+7m5FhwWJJcqWIY6wwmJcDmyLzgzV7I4tWC6m6E4KCfkcvKEmAIqQT56Jc/MQSEaXAJW/QPzh5jnKWuMw0AswQICAqKKrbprrBM6Fxe5omQ4LFYUirWXgjCxfzgIBkXrfmlWi5iYt3FYI9hQ+busNitUFi9cgrEd6wsxUAvR+A/MKJgqKUzd3vwcREGZSQoAyzqzOE71gpYJaplr6A8YExvqtUZr0SlNESFBC0LVT2yrnBcPOCyUaoR1FMjCSBJqlR68ImEABQOKNlrFmIBughSgqnLmMoBd4KpH2TPtIBJZSCqejxMMm4Yt+e8oKAgA/L/EUHwytFRbNU1yHHpFQxE/pq7BvOHMhqhI65u5gzTdsP/s8TYelK03kzLoegt7Q4FBrUIgZtR9oyiQlCqc6QwwpvKvJalvxCpWiaVGIbIeXtC7xEwZPQdgU4RmEpLAoaxY7EFSMwyvQEQ069F+jTSp+3dkq4mBmBUglCIxfqksyj9884VllIAp/EhirWVuUNsWHizhHARWE2H/5ho536hspB41AnE3WWo84fjfV1JpSKiVCevMI/dY7f6WJCd2WWWSY0InE04I/xI9c481KJsuRRMr1jtbCMTEAClCFP7ZpH0mCCJaB+sbypNNPOFRDKJZRnS/nHPN0F+p5/jrDbfsplNH1nEx/415q+UZRJMhIpSvr3lGqNEs1QaZMPKgtTSIJgppTRl9T7xRLJNrWur60hJBkVunZgNU8ypRK2vcmhbsRJCBc9ojRTiS261qkLNhzDpqsTRp3gFQ3tnmT+YE18kUqdWW4AXzjMcM5kk5068IE8hdX6fmBvWqQFRfqlO3glda2NRwsXjIMIpfy6LZ4Phmj8O6wNad0qxao3l1tW8EkNQe2ofPPOM0mFNqx4U4wBht6IM6ad6QRulmGp6oqa0sF7CSqAaB/NPRtKxnSa3fCKzgzCrWc819oRY2EhT1RQehLCBOUchsvub+cZ5cGavFUy4iEmlNfMHX11gNUoFJQyJ+41PrqkSeagWjCtdQKZxRuTapEMkyopGvw0D1cxComvDvqYczi5YNQE8SKXjMJJlqUgSykuqs4+M4XEaJZkdQ6VIKr3eIZnB5IHtWwEUCUmhzKdon3iSyTlXOtvSLq61zSg0N+PBQSiNwikTMpUnj8RSMMtUM4v9ogEyF07ytEh4vMvrmX492hroigvfPt+cUGScnkmrecLNJMUej5svlFI1VBMqDnmeNYVGQ1oMl0PzFAwj5ksp5/aFANy/HrWMpjRMLk3ckIGe1PvBmwCSs0wBNt4t5xmwxMaHXTpBEhuFPBfURdq+GM9VK3ZynGweCMV0VNXHkLxR4ZRT5wPBILd5w0afFq9WSsa8KXDIWbFANaEGv9x5/MczwdFIaiL7w0uzTH+IJ4KUWHqcd6XbZpVAGJiazT7wJz3R6mOXtW0CYvJLIthKnrlTlGjY9mmkCzyiS+8RKFzuq8ozbaFYTb3/cUF+AvcwixbgSSTJvYwF0QmxoWfrG+bbTKEllnxVrvTq3AV5xwJdmnNJSb0JLjKqR1Ni2aaR5wJQP6pt0eZK+UQU4+2Ekf6YlewQlUWpaKZtoS12y9S8P+oyKiTbz5zMtwoToVjFNhzDrlGiNU20BGpTvS0A4wKBOAV24rGfwiiZcPmBPhEWde2iHxpmxQtk9+FoIxtVbnwig4J59KwowTT8+UPRpOIprzRPK8HFxgVZujRmlwyeOneWUEYZfq8L0XjGVSC+epXpEE8peYilX/AD2IziS/pEOARcjlF0xomx86N+A8TxQoJfqqZV+IzeFWutkt2IAw+v4+YLjZPjOioLBEioYpudaxVNhEMnH8RPAmWn2GqxE1d41Hf2dlhvEFGYdYoOGfyIhwiCFZdOHveHirjjqB5Lw4mCZw1utnrakUT4RR2txiHBOXlWCLvG5CyBXzPHvKGONqHHFAylYokwDReXyBCTYS/mAvE4ZK16FgMoY4jPVtPMF+eZijDkNuxzgHDzPYPpDel1omxBTqjnjwieOShHCpITv1igYJhDhELWpgNRxVySpA79RE8YOWVaga5rlGbwHHtnxhjgl3TlweFFoxqWZPsFh/GYfupRU7WMokP4b0htwu3t1tBf4vnxl5P2eEHxDVC+RX3EZZBw7yh/BOZhUas1TUNXPSAAGREa/aEQ8q5MKIULoAG4xJv2lLep4/aCEl3XYevJlSLsLEmlA3Zyi8UzRa1imdS4zRG70i/BMhJ3zMFCtKD7sO0hatdfYhhzrvAYhpMmGJJs/5EjO9I5v6lgGUgiQyWXfE6jMBP22feMdTZ8VQBhT+IaETzpyAMiJk8cvb8KZXkEpcsJQS70KeWcPx80V4WJNLSYgIqDW6Ujo7EZcQkzbmIWYSCWccJyQK6RzGUb000oSwVFUOqJU0eO5smKko8LEM7JuzzbqDKVZCvCH8I5f6hg7rjDOGNZhMC3MrzPKMYU3zbIV5VjXt+HNeSSV1O6JeKftJHlaMpmcpUMaca/aL+WGFnmBYl624Kma6RLEuRbJ2L516QcGYXKlf6ulBz6xMMIt8wgTq8TfkTwmCVdVapZEp5mDPhBqqmSfk6Q0xLPwTmiGp9Yh4qyrTRy/tFUN+zD456CIieVeOsHCN3AdqfmAE0TUngIhViqLAeWZvFZGnkfK0DeBtR+HFTp6Qwm0yKOQXypFMGWfz1SzN0iTTZlO0HtCJoLdb0YcYY8Cb5Ib62AW8EGYoVKjM340hDMzGYr9+nGJM/CmgTMqqJEUEuXeocBNOHnEJElcAdEqy2z7WAJXUP058ocojP6AZijmBhFmqSBVE4gRYppgaoRkbDVYEz+ZqXFT7Qk0oUlxQIR2+kMyLUv14D0iZFypPY24GubisNJiAA6mi3zooHzAKotAuX5Q/eBKCvKrLx46RUgbw0a6Evz5wS6XOaIKed4m6VD8/diYk+G4VC7RCWGVTnfu/LMwDNyu47aIJSjh2zdaK/adVQg0lzsxW2XlYQqdGfFCFq2QKyad9YAABalwy0upfPlBIYAOlck77eCQiBQlr1tzaic4foViao/chTN8qUEWSOEBK/IcfiCuRzZddBleF8NCxGtatWFNNMmpDjRnXsQu+AjA9fmBhlyEGhVGXgoiSjgt0Cv0iZpeHlChRXRedG84WWahdmRG4t+OkUeIWY3b8VgmchrHi+RyjSrp5c3BzUojVVjyjfs22bhA8KSYojg73UkvHL3j/AG8+GT0+IUYqBE/K+UZxHocQmdzPPhP/AFTybtrSkGukczbNmllpPvm+6JmK5o97xilxiMgmhFrqa0g/UlHHqtlR2aE37R0dk2wSTAHCkm1MpMy8yfJKR0MSY4jmabBGZnl3VW4BlPrHAG0FF+U6rC76sRaz3r5mJneK142zhd4YssxCfxEzCmSF9VUhhGZfvVeCkUaFOJfMc7WW8SbFWzW7sFjcz6L8ZsrXVncPy+ICkEBOzweqRRNjZrkl4M+IgNOnRriInF8uHdC13DvnwgGQizI2a2aM0uKhoDS1U4QTjFgxGVNaWhL1V/7ilU6VvxMSbDK81uA7tGffmatMrLT8wBiGkpTVEVMzeKdaN/8AurklaN+WhySFC8652Bv7Rmkxd3he7fEHxchXtKUhiNE26hNue8LC3aQm8QKFaOdcrxUMQgIl/fMdtCjENUJfQvaJIuRaJ6IxVKm+rLQRZMoeZkJASWy0a6rGaecjNRe/doMxmTL2ENM1pkAVSgJGfG1/SEWgT1qHzq8VeJNTL75QJppjk3wnVLwTxpLlPZczAQhAjXRi4+e6xn8WbIrS9E8nhpdomyrUWU1ZOMPFXDeIVCqMlGOj9iJLKRZ7OOi2r6xmmxj2PzBE5IJ3V6e0WE9a8TCNUKVTjoUHOIpDAGpFLv3+Yyy45FjmjVajdpBmxploi5VsvbVjOJjVNhTElGGR8/5XiqUIGob5cmrFJxJiEA8kpy0gnEW3IdeDcLxrRoOGUVXpXy7z4wswKa06t5xlM54+ui+cPLik2NEIXP1iaNDBHBUPQe/pdYCVah5EfHzGfExrFwOPf5gjGKrVPhILnFuIXYUCWr2kN4gFB35RRLimicmeJ401gP8AjCilU41/MNLr799iLfC5vxTr9oPhfe2aiye0MFWJNQOMjBmqOBe7+l/OL8PY5yUllJ1AVefxG3B/TzKf3ySNRcQBRwBKhNKQpjlyTUBbJimkKZQO0js7QMIKJJkZ0llIPAkBRaMMmzTTzH9s8yUYkc0/HSHM0xl3h2T6Qwlv5Ja8dLA/TzK+JJKmc2Juraiv0vF20yYQl/ZPu5gSyzNS6KF1uIS9P44pmBsdaDlmIiIjae7ZCNE2GTMSZl4sa2skJLgqXD9fNPtFFImIcdv8wZZkm9fflFpwUUKVySvWBLhui+XtS0Kqrc0+3xEM61rfhFvhD7i5y1iGQCpQ2VfK8T4hCWVD0WFrqDxb26RomwmXglyQ4uYrmwkKaVQl/KArmY6VZnyXusS3PiekXHB0q1HF+mukGXDCEjoO2vCmqLsHqPKGnawR+J84uGELEDi/ZrCjDBYXpbvnDDwm8h48FpCg/tNNK5ZCLvBHAPXlEGE4ALdSO8oH1VP+4jIAVWi114RJpqDKlgnZiyaQGpArSqiy9IAwDdTfRFZu6wRVNoNE+8NvUPk+tYtODKoHFlGg4/iAMBWWi286ev4KpEyLWtDWGZbefnDS4SKpp301hppbLr1avdICoz2fVFpbksSQvZOFjFv0jsLqppa6ZxDhab3zlqIoQzd+XaQpnFEPdtPtDSYedETTX1hvCyoC5C5UH3iZhhAUCZe+cLKZc1A4RdLgjXW3Ds5w4wtFN2OeV62zgWsou1s0fnDTTBs15xYJHIoyt71hhhPXv3gjOQ3pdm75xZKQlCenuYs8IZgUHZyrC+CjfB81hVW7rs/AUHp2IaTDoLoK0Lm8SJDe4R1NjOOASMYCQBP5HEQZIAQRoMorxJsEL4kpM/8AhJ4dblSCvCDEhLxLy45+OZSf2AgCgmIJLZoAAqx1diw8YBRjSygDPfTQShQlWW0SJD8msVT4uE/iAGbOXDOHo5Mzi9BaOfizje/aoH+REyoMxSDEi73Gd5qsi3RdFPWzQRLY5rxVu/vEiQVJ51KVNu8rr5wEzDCgIV+XDmkSJGd4Iq1EzV79taiJMEHJu7xIkavE+4OAAShHNj5nWAQjpZLJRUSJEiKhI13bJZkZvLWDvSoQUK0rnoHiRIYfj7iGUEPxoO/POJJ5XJuDp5LEiRPxJ3TTTBCWKnLLvuyGQTIEcN2DQRIkazD7UYAVL5Dz0p00hpgCWcCwySvFfiJEh+1s5qTFAXRLjPK8JMERSBdiNfL5iRIuZWbw13GmaN5GDK7KmbBhSnUc4kSM7zVqTD+kpq5a38enRoBDH9r1UVcZBDQViRIsSf6UjRNX7/EGyBweK9/aJEhOxaYyMnkeTIMoBnlcAIVA5DnwiRISStYiuq6Gl+buYWSarJoG49GaJEi5zWbwwLlOVOyfmKMUBf3Np+NViRIfisf/2Q==;clipPath=inset(20.24% 33.33% 20.24% 33.33%);" vertex="1" parent="1">
          <mxGeometry x="3492" y="-50" width="333.06" height="333.06" as="geometry" />
        </mxCell>
        <mxCell id="xJXF1Hc_nIpqLQr2RFJc-19" value="" style="rounded=1;whiteSpace=wrap;html=1;fillColor=#fff2cc;strokeColor=#1C1C1C;" vertex="1" parent="1">
          <mxGeometry x="3890" y="-150" width="670" height="1100" as="geometry" />
        </mxCell>
        <mxCell id="xJXF1Hc_nIpqLQr2RFJc-20" value="" style="shape=image;verticalLabelPosition=bottom;labelBackgroundColor=default;verticalAlign=top;aspect=fixed;imageAspect=0;image=https://medlineplus.gov/images/Xray_share.jpg;fontStyle=0" vertex="1" parent="1">
          <mxGeometry x="4721.61646805313" y="525.3381318681319" width="296.0566771277654" height="197.36023404866623" as="geometry" />
        </mxCell>
        <mxCell id="xJXF1Hc_nIpqLQr2RFJc-21" value="" style="shape=image;verticalLabelPosition=bottom;labelBackgroundColor=default;verticalAlign=top;aspect=fixed;imageAspect=0;image=https://img.freepik.com/free-vector/flat-style-distorted-checkered-background_23-2148964237.jpg;" vertex="1" parent="1">
          <mxGeometry x="4710.002861184166" y="15.599010989010814" width="303.03334453112916" height="201.8662251640993" as="geometry" />
        </mxCell>
        <mxCell id="xJXF1Hc_nIpqLQr2RFJc-22" value="" style="group;fillColor=#b1ddf0;strokeColor=#10739e;container=0;" connectable="0" vertex="1" parent="1">
          <mxGeometry x="4061.01" y="450" width="310" height="300" as="geometry" />
        </mxCell>
        <mxCell id="xJXF1Hc_nIpqLQr2RFJc-23" value="" style="endArrow=classic;html=1;rounded=0;fontStyle=1;strokeWidth=6;" edge="1" parent="1">
          <mxGeometry width="50" height="50" relative="1" as="geometry">
            <mxPoint x="3830" y="92" as="sourcePoint" />
            <mxPoint x="4070" y="92" as="targetPoint" />
          </mxGeometry>
        </mxCell>
        <mxCell id="xJXF1Hc_nIpqLQr2RFJc-24" value="&lt;span style=&quot;font-size: 44px;&quot;&gt;Medical Image&lt;/span&gt;" style="text;html=1;align=center;verticalAlign=middle;whiteSpace=wrap;rounded=0;fontStyle=1;fontFamily=Verdana;fontSize=38;" vertex="1" parent="1">
          <mxGeometry x="4641.62" y="677.9599999999999" width="439.79" height="174.29" as="geometry" />
        </mxCell>
        <mxCell id="xJXF1Hc_nIpqLQr2RFJc-25" value="" style="group;fillColor=#bac8d3;strokeColor=#23445d;container=0;" connectable="0" vertex="1" parent="1">
          <mxGeometry x="4076.2900000000004" y="-50.00000000000006" width="310" height="300" as="geometry" />
        </mxCell>
        <mxCell id="xJXF1Hc_nIpqLQr2RFJc-26" value="&lt;span style=&quot;font-size: 44px;&quot;&gt;Arnold&#39;s Cat Map&lt;/span&gt;" style="text;html=1;align=center;verticalAlign=middle;whiteSpace=wrap;rounded=0;fontStyle=1;fontFamily=Verdana;fontSize=38;" vertex="1" parent="1">
          <mxGeometry x="4082.579595450824" y="525.3410861593069" width="279.4444901649691" height="149.3237592052386" as="geometry" />
        </mxCell>
        <mxCell id="xJXF1Hc_nIpqLQr2RFJc-27" value="&lt;span style=&quot;font-size: 44px;&quot;&gt;XOR diffusion&lt;/span&gt;" style="text;html=1;align=center;verticalAlign=middle;whiteSpace=wrap;rounded=0;fontStyle=1;fontFamily=Verdana;fontSize=38;" vertex="1" parent="1">
          <mxGeometry x="4091.5695954508237" y="34.42108615930687" width="279.4444901649691" height="149.3237592052386" as="geometry" />
        </mxCell>
        <mxCell id="xJXF1Hc_nIpqLQr2RFJc-29" value="" style="endArrow=classic;html=1;rounded=0;fontStyle=1;strokeWidth=6;" edge="1" parent="1">
          <mxGeometry width="50" height="50" relative="1" as="geometry">
            <mxPoint x="4228" y="257.14" as="sourcePoint" />
            <mxPoint x="4228" y="447.14" as="targetPoint" />
          </mxGeometry>
        </mxCell>
        <mxCell id="xJXF1Hc_nIpqLQr2RFJc-30" value="&lt;font style=&quot;font-size: 30px;&quot;&gt;Unscrambled image after k iterations&lt;/font&gt;" style="text;html=1;align=center;verticalAlign=middle;whiteSpace=wrap;rounded=0;fontStyle=1;fontFamily=Verdana;fontSize=38;" vertex="1" parent="1">
          <mxGeometry x="3903.04" y="310" width="300" height="70" as="geometry" />
        </mxCell>
        <mxCell id="xJXF1Hc_nIpqLQr2RFJc-31" value="&lt;span style=&quot;font-size: 44px;&quot;&gt;High entropy key&lt;/span&gt;" style="text;html=1;align=center;verticalAlign=middle;whiteSpace=wrap;rounded=0;fontStyle=1;fontFamily=Verdana;fontSize=38;" vertex="1" parent="1">
          <mxGeometry x="4675" y="181.38" width="354.08" height="174.29" as="geometry" />
        </mxCell>
        <mxCell id="xJXF1Hc_nIpqLQr2RFJc-32" value="&lt;span style=&quot;font-size: 44px;&quot;&gt;Decryption&lt;/span&gt;" style="text;html=1;align=center;verticalAlign=middle;whiteSpace=wrap;rounded=0;fontStyle=1;fontFamily=Verdana;fontSize=38;" vertex="1" parent="1">
          <mxGeometry x="4026.29" y="-320" width="410" height="174.29" as="geometry" />
        </mxCell>
        <mxCell id="xJXF1Hc_nIpqLQr2RFJc-34" value="&lt;span style=&quot;font-size: 30px;&quot;&gt;Encrypted Medical Image&lt;/span&gt;" style="text;html=1;align=center;verticalAlign=middle;whiteSpace=wrap;rounded=0;fontStyle=1;fontFamily=Verdana;fontSize=38;" vertex="1" parent="1">
          <mxGeometry x="3512" y="310" width="300" height="70" as="geometry" />
        </mxCell>
        <mxCell id="xJXF1Hc_nIpqLQr2RFJc-35" value="" style="endArrow=classic;html=1;rounded=0;fontStyle=1;strokeWidth=6;" edge="1" parent="1">
          <mxGeometry width="50" height="50" relative="1" as="geometry">
            <mxPoint x="4710" y="109" as="sourcePoint" />
            <mxPoint x="4390" y="109" as="targetPoint" />
          </mxGeometry>
        </mxCell>
        <mxCell id="xJXF1Hc_nIpqLQr2RFJc-36" value="" style="endArrow=classic;html=1;rounded=0;fontStyle=1;strokeWidth=6;" edge="1" parent="1">
          <mxGeometry width="50" height="50" relative="1" as="geometry">
            <mxPoint x="4371.01" y="610" as="sourcePoint" />
            <mxPoint x="4720" y="610" as="targetPoint" />
          </mxGeometry>
        </mxCell>
      </root>
    </mxGraphModel>
  </diagram>
</mxfile>
